#tb 0: 1/5
0,          0,          0,        1,  3655644, 0x87973530
0,          1,          1,        1,  3655644, 0x87973530
0,          2,          2,        1,  3655644, 0x3c3167fd
0,          3,          3,        1,  3655644, 0x87973530
0,          4,          4,        1,  3655644, 0x3c3167fd
0,          5,          5,        1,  3655644, 0x87973530
0,          6,          6,        1,  3655644, 0x87973530
0,          7,          7,        1,  3655644, 0x3c3167fd
0,          8,          8,        1,  3655644, 0x87973530
0,          9,          9,        1,  3655644, 0x4f0da763
0,         10,         10,        1,  3655644, 0x66a4a763
0,         11,         11,        1,  3655644, 0xb20a7496
0,         12,         12,        1,  3655644, 0x66a4a763
0,         13,         13,        1,  3655644, 0x5600644a
0,         14,         14,        1,  3655644, 0xce5880ee
0,         15,         15,        1,  3655644, 0xa993ef3d
0,         16,         16,        1,  3655644, 0x73564014
0,         17,         17,        1,  3655644, 0x2a6e1e8c
0,         18,         18,        1,  3655644, 0xbae02e7c
0,         19,         19,        1,  3655644, 0x55af4a2d
0,         20,         20,        1,  3655644, 0x54b7ff2d
0,         21,         21,        1,  3655644, 0x39af1aed
0,         22,         22,        1,  3655644, 0xe48dd11c
0,         23,         23,        1,  3655644, 0xba15c78d
0,         24,         24,        1,  3655644, 0x39af1aed
0,         25,         25,        1,  3655644, 0x27f96cd8
0,         26,         26,        1,  3655644, 0xf4f068dc
0,         27,         27,        1,  3655644, 0xf1c55cf5
0,         28,         28,        1,  3655644, 0xd932633d
0,         29,         29,        1,  3655644, 0xc6e95e0a
0,         30,         30,        1,  3655644, 0x9a63c9de
0,         31,         31,        1,  3655644, 0xf166ad4f
0,         32,         32,        1,  3655644, 0xe9eeba41
0,         33,         33,        1,  3655644, 0x7e598ad7
0,         34,         34,        1,  3655644, 0xf3bd257e
0,         35,         35,        1,  3655644, 0xf35b3852
0,         36,         36,        1,  3655644, 0x9d553959
0,         37,         37,        1,  3655644, 0x0a9de8e2
0,         38,         38,        1,  3655644, 0xf2325b6c
0,         39,         39,        1,  3655644, 0xcf924028
0,         40,         40,        1,  3655644, 0x8dae55bc
0,         41,         41,        1,  3655644, 0x57b08ced
0,         42,         42,        1,  3655644, 0xef89a1d8
0,         43,         43,        1,  3655644, 0x69e5503a
0,         44,         44,        1,  3655644, 0xc3de7b3f
0,         45,         45,        1,  3655644, 0x88eea64a
0,         46,         46,        1,  3655644, 0xe39cce1f
0,         47,         47,        1,  3655644, 0xf0ed0d04
0,         48,         48,        1,  3655644, 0x32490d3e
